<svg width="142" height="38" viewBox="0 0 142 38" fill="none" xmlns="http://www.w3.org/2000/svg">
<path d="M21.8967 34.4185C21.2644 34.8079 20.6076 35.1897 19.9239 35.564C19.2451 35.9333 18.5175 36.2725 17.7362 36.579C16.9598 36.888 16.1077 37.1518 15.1774 37.3729C14.2447 37.594 13.2241 37.7547 12.1107 37.8552C8.54842 38.1768 5.73324 37.604 3.66275 36.1368C1.59714 34.6697 0.403193 32.0243 0.0784586 28.1981C-0.111988 25.9823 0.0442757 23.8644 0.547249 21.8471C1.04778 19.8322 1.88525 18.036 3.05723 16.4608C4.23409 14.8806 5.74545 13.5817 7.58887 12.5618C9.42985 11.5443 11.5858 10.9212 14.0543 10.6926C15.2262 10.5921 16.303 10.5821 17.287 10.6625C18.2685 10.7378 19.1646 10.871 19.9727 11.0644C20.7785 11.2529 21.5085 11.4664 22.1604 11.7076C22.8099 11.9488 23.3959 12.1849 23.9184 12.411L23.1371 20.1689L15.9685 20.812C15.9685 20.5382 15.9685 20.184 15.9685 19.7468C15.9734 19.3047 15.9709 18.8575 15.9587 18.4003C15.9441 17.9455 15.9319 17.5009 15.9197 17.0637C15.905 16.6216 15.8904 16.2498 15.8708 15.9483C15.8513 15.7272 15.8147 15.476 15.7634 15.1946C15.7097 14.9082 15.6193 14.6319 15.4899 14.3706C15.3654 14.1093 15.1799 13.9033 14.9332 13.7475C14.6915 13.5868 14.3888 13.524 14.025 13.5566C13.3267 13.6169 12.7187 13.9686 12.1986 14.6118C11.6835 15.2499 11.2415 16.0739 10.8704 17.0838C10.4993 18.0963 10.1916 19.2318 9.95235 20.4905C9.71063 21.7516 9.53239 23.0278 9.4152 24.3192C9.298 25.6054 9.23208 26.8716 9.21987 28.1177C9.20522 29.3588 9.2394 30.439 9.31753 31.3635C9.33707 31.6399 9.37613 31.9841 9.43473 32.3986C9.49821 32.8081 9.61297 33.1975 9.77656 33.5643C9.94503 33.9336 10.1794 34.2426 10.4797 34.4888C10.7776 34.7375 11.1683 34.8405 11.6517 34.8003C12.477 34.7275 13.229 34.127 13.9078 33.0015C14.5914 31.876 15.1042 29.9366 15.4509 27.1831L22.8343 26.5199L21.8967 34.4185Z" fill="white"/>
<path d="M39.2049 8.43046C41.4902 8.22948 43.3678 8.36514 44.8401 8.83242C46.31 9.30221 47.5112 10.1338 48.4439 11.3246C49.0495 12.1235 49.5402 13.0405 49.9187 14.078C50.302 15.1181 50.5535 16.334 50.6707 17.7258C50.7732 18.9267 50.7708 20.1376 50.6609 21.3636C50.5486 22.5896 50.3484 23.7754 50.0554 24.921C49.7673 26.0615 49.3937 27.1393 48.9323 28.1568C48.4683 29.1767 47.9361 30.0837 47.3306 30.8801C46.2025 32.395 44.845 33.5079 43.2579 34.2163C41.6758 34.9198 39.6859 35.3795 37.2906 35.5931C34.9857 35.8016 33.1057 35.7212 31.6554 35.3519C30.2026 34.9851 29.0209 34.2917 28.1102 33.2717C27.4582 32.5633 26.9138 31.6388 26.4792 30.4982C26.0421 29.3526 25.7491 27.8905 25.6002 26.1068C25.3389 23.0795 25.6319 20.3185 26.4792 17.8263C27.3313 15.3342 28.6693 13.3043 30.4932 11.7366C31.5797 10.792 32.8274 10.0484 34.2337 9.50571C35.6401 8.96306 37.2955 8.60632 39.2049 8.43046ZM36.7339 32.7492C37.3443 32.6889 37.8986 32.3573 38.3942 31.7543C38.8874 31.1464 39.3269 30.3475 39.7127 29.3626C40.1034 28.3728 40.4379 27.2599 40.7187 26.0264C40.997 24.7878 41.2167 23.5141 41.373 22.2077C41.5342 20.9013 41.6318 19.605 41.666 18.3187C41.7051 17.0325 41.6807 15.8718 41.5976 14.8317C41.4731 13.4047 41.2485 12.44 40.9238 11.9376C40.5966 11.4301 40.1669 11.2015 39.6346 11.2542C39.0291 11.3095 38.4724 11.6336 37.9645 12.229C37.4567 12.8269 36.9928 13.6032 36.5777 14.5604C36.1602 15.5201 35.8086 16.6104 35.5229 17.8364C35.2421 19.0573 35.015 20.3084 34.8392 21.5947C34.6635 22.881 34.556 24.1472 34.517 25.3933C34.4779 26.6343 34.4999 27.7724 34.5853 28.81C34.722 30.3726 34.9809 31.4302 35.3666 31.9855C35.75 32.5432 36.2066 32.7969 36.7339 32.7492Z" fill="white"/>
<path d="M52.3691 33.8997L55.5335 7.3802L66.2571 6.41549C67.9027 6.26978 69.3579 6.30997 70.6227 6.53608C71.885 6.76469 72.9568 7.23951 73.8358 7.96304C74.7148 8.68658 75.4131 9.67138 75.9356 10.9175C76.4557 12.1636 76.7951 13.7186 76.9513 15.5802C77.1198 17.5775 77.0392 19.5546 76.7072 21.5092C76.38 23.4662 75.711 25.2474 74.6953 26.8553C73.6844 28.4631 72.2952 29.8072 70.525 30.8849C68.7524 31.9652 66.5159 32.6285 63.8154 32.8747L52.3691 33.8997ZM63.0439 30.0408C63.9155 29.9604 64.6578 29.5158 65.2706 28.7043C65.881 27.8954 66.3865 26.8854 66.7844 25.6795C67.18 24.4736 67.4827 23.1547 67.6927 21.7202C67.9003 20.2807 68.0492 18.8964 68.142 17.5699C68.2323 16.2384 68.2787 15.0476 68.2787 14.0025C68.2836 12.9524 68.2689 12.2088 68.2299 11.7716C68.1566 10.9225 67.9369 10.2743 67.5658 9.83217C67.1946 9.38499 66.5989 9.19657 65.7785 9.26942L63.8643 9.44026L61.325 30.2016L63.0439 30.0408Z" fill="white"/>
<path d="M87.363 30.7512L78.749 31.525L81.9134 5.00551L90.5567 4.22168L87.363 30.7512Z" fill="white"/>
<path d="M112.982 28.446L103.655 29.2801L97.6289 10.8602L95.3338 30.0338L91.7397 30.3553L94.9041 3.83587L104.426 2.97166L110.237 21.673L112.552 2.24812L116.224 1.9165L112.982 28.446Z" fill="white"/>
<path d="M130.529 14.881L140.852 13.9565L139.553 26.0556L134.855 26.4776L133.869 23.9151L133.722 23.9352C133.097 24.8195 132.338 25.5908 131.447 26.2465C130.553 26.9047 129.349 27.3017 127.833 27.4424C126.666 27.5504 125.528 27.4524 124.415 27.1509C123.306 26.8444 122.298 26.2968 121.387 25.5129C120.474 24.7291 119.707 23.6639 119.082 22.3173C118.457 20.9708 118.059 19.3127 117.891 17.3431C117.708 15.2127 117.854 13.1601 118.33 11.183C118.811 9.20834 119.624 7.43217 120.772 5.85698C121.924 4.2843 123.421 2.98797 125.264 1.96799C127.105 0.950525 129.3 0.324972 131.847 0.0888184C133.813 -0.0845277 135.549 -0.00413525 137.053 0.329996C138.557 0.66664 139.982 1.05855 141.33 1.50574L140.49 9.60528L133.761 10.2082C133.761 9.90675 133.766 9.55001 133.781 9.13297C133.8 8.71845 133.803 8.28634 133.791 7.83664C133.776 7.38192 133.766 6.93725 133.761 6.50012C133.754 6.05796 133.737 5.67358 133.712 5.34448C133.693 5.1234 133.654 4.87217 133.595 4.5908C133.542 4.3044 133.451 4.02805 133.322 3.76677C133.197 3.50047 133.019 3.28944 132.785 3.13368C132.555 2.9729 132.247 2.9126 131.857 2.9528C131.158 3.01309 130.551 3.3623 130.03 3.9979C129.515 4.63602 129.073 5.46004 128.702 6.46997C128.331 7.48241 128.031 8.61796 127.804 9.8766C127.574 11.1378 127.403 12.414 127.286 13.7053C127.169 14.9916 127.101 16.2527 127.081 17.4837C127.066 18.7173 127.101 19.7825 127.179 20.6793C127.203 20.9557 127.247 21.2974 127.306 21.7043C127.364 22.1138 127.484 22.5083 127.667 22.8901C127.848 23.272 128.089 23.5936 128.39 23.8548C128.688 24.1161 129.105 24.2241 129.64 24.1764C130.519 24.1036 131.325 23.5383 132.062 22.4781C132.804 21.4129 133.288 19.7146 133.517 17.3832L130.177 17.6847L130.529 14.881Z" fill="white"/>
</svg>